<svg width="21" height="21" viewBox="0 0 21 21" fill="none" xmlns="http://www.w3.org/2000/svg">
<path fill-rule="evenodd" clip-rule="evenodd" d="M21 10.5C21 16.299 16.299 21 10.5 21C4.70101 21 0 16.299 0 10.5C0 4.70101 4.70101 0 10.5 0C16.299 0 21 4.70101 21 10.5ZM10.5 17.3333C9.94771 17.3333 9.5 16.8856 9.5 16.3333V11.5H4.66667C4.11438 11.5 3.66667 11.0523 3.66667 10.5C3.66667 9.94771 4.11438 9.5 4.66667 9.5H9.5V4.66667C9.5 4.11438 9.94771 3.66667 10.5 3.66667C11.0523 3.66667 11.5 4.11438 11.5 4.66667V9.5H16.3333C16.8856 9.5 17.3333 9.94771 17.3333 10.5C17.3333 11.0523 16.8856 11.5 16.3333 11.5H11.5V16.3333C11.5 16.8856 11.0523 17.3333 10.5 17.3333Z" fill="#E9EFF7"/>
</svg>
