<svg width="25" height="25" viewBox="0 0 25 25" fill="none" xmlns="http://www.w3.org/2000/svg">
<path d="M5.625 23.5C3.34683 23.5 1.5 21.6532 1.5 19.375V5.62498C1.5 3.34681 3.34683 1.5 5.625 1.5H19.375C21.6532 1.5 23.5 3.34681 23.5 5.62498L23.5 19.375C23.5 21.6532 21.6532 23.5 19.375 23.5H5.625Z" fill="#6A91CB"/>
<path d="M16.625 9.74995L10.4723 15.2499L8.375 13.3751M23.5 5.62498L23.5 19.375C23.5 21.6532 21.6532 23.5 19.375 23.5H5.625C3.34683 23.5 1.5 21.6532 1.5 19.375V5.62498C1.5 3.34681 3.34683 1.5 5.625 1.5H19.375C21.6532 1.5 23.5 3.34681 23.5 5.62498Z" stroke="white" stroke-width="2" stroke-linecap="round" stroke-linejoin="round"/>
</svg>
