<?xml version="1.0" encoding="iso-8859-1"?>
<!-- Generator: Adobe Illustrator 19.0.0, SVG Export Plug-In . SVG Version: 6.00 Build 0)  -->
<svg version="1.1" id="Layer_1" xmlns="http://www.w3.org/2000/svg" xmlns:xlink="http://www.w3.org/1999/xlink" x="0px" y="0px"
	 viewBox="0 0 512.001 512.001" style="enable-background:new 0 0 512.001 512.001;" xml:space="preserve">
<polygon style="fill:#E6E6E6;" points="499.803,398.588 442.48,455.923 398.86,499.531 281.908,382.579 228.282,328.953 
	149.63,250.314 12.729,113.412 113.672,12.469 230.624,129.421 382.851,281.648 "/>
<g>
	<path style="fill:#CCCCCC;" d="M442.48,455.923l-43.621,43.608L281.908,382.579l-53.626-53.626
		c-0.049-1.659-0.073-3.331-0.073-5.003c0-45.158,16.716-86.399,44.316-117.879c5.234-5.979,10.859-11.604,16.838-16.838
		c0.183-0.171,0.378-0.342,0.573-0.5c5.149-4.478,10.554-8.651,16.191-12.519c-3.941,5.735-7.553,11.726-10.786,17.924
		c-13.08,24.842-20.474,53.126-20.474,83.142C274.867,372.318,348.931,450.054,442.48,455.923z"/>
	<path style="fill:#CCCCCC;" d="M302.382,172.456c-3.868,5.637-8.053,11.055-12.519,16.204c-0.171,0.195-0.329,0.378-0.5,0.573
		c-5.234,5.979-10.859,11.604-16.838,16.838c-31.492,27.6-72.721,44.316-117.879,44.316c-1.672,0-3.343-0.024-5.015-0.073
		L12.729,113.412l22.304-22.304c26.355,65.986,90.877,112.608,166.271,112.608c30.016,0,58.311-7.394,83.154-20.462
		C290.656,179.996,296.635,176.397,302.382,172.456z"/>
</g>
<polygon style="fill:#F95428;" points="210.858,357.639 195.301,373.196 172.045,396.465 115.808,340.227 139.076,316.959 
	154.621,301.402 "/>
<polygon style="fill:#E54728;" points="210.858,357.639 195.301,373.196 172.045,396.465 155.35,379.77 178.619,356.502 
	194.164,340.945 "/>
<rect x="191.658" y="135.666" transform="matrix(-0.7071 -0.7071 0.7071 -0.7071 272.7923 611.444)" style="fill:#2BA5F7;" width="142.745" height="227.118"/>
<polygon style="fill:#E54728;" points="210.858,357.639 195.301,373.196 139.076,316.959 154.621,301.402 "/>
<rect x="279.772" y="172.155" transform="matrix(-0.7071 -0.7071 0.7071 -0.7071 309.3139 699.5506)" style="fill:#2197D8;" width="39.534" height="227.118"/>
<g>
	<path style="fill:#333333;" d="M129.683,242.56c-3.122,0-6.246-1.191-8.628-3.574L4.107,122.038
		c-2.288-2.288-3.574-5.392-3.574-8.628c0-3.236,1.286-6.34,3.574-8.628L105.047,3.841c2.288-2.288,5.392-3.574,8.628-3.574
		s6.34,1.286,8.628,3.574l116.948,116.948c4.765,4.765,4.765,12.491,0,17.257c-4.764,4.765-12.488,4.766-17.255,0L113.676,29.725
		L29.99,113.41l108.321,108.319c4.765,4.765,4.766,12.491,0,17.255C135.929,241.368,132.806,242.56,129.683,242.56z"/>
	<path style="fill:#333333;" d="M398.857,511.734c-3.236,0-6.34-1.286-8.628-3.574L273.281,391.212
		c-4.765-4.765-4.765-12.491,0-17.257c4.765-4.763,12.491-4.765,17.255,0l108.319,108.321l83.684-83.684L374.222,290.272
		c-4.765-4.765-4.766-12.491,0-17.255c4.765-4.765,12.491-4.766,17.257,0l116.948,116.948c2.288,2.288,3.574,5.392,3.574,8.628
		s-1.286,6.34-3.574,8.628L407.486,508.161C405.197,510.448,402.093,511.734,398.857,511.734z"/>
	<path style="fill:#333333;" d="M437.868,420.688c-3.124,0-6.245-1.191-8.628-3.574l-64.912-64.914
		c-4.765-4.765-4.765-12.491,0-17.255c4.765-4.763,12.491-4.765,17.255,0l64.912,64.914c4.765,4.765,4.765,12.491,0,17.255
		C444.114,419.496,440.99,420.688,437.868,420.688z"/>
	<path style="fill:#333333;" d="M408.751,449.805c-3.122,0-6.246-1.191-8.628-3.574l-64.914-64.912
		c-4.765-4.765-4.766-12.491,0-17.255c4.765-4.765,12.491-4.766,17.255,0l64.914,64.912c4.765,4.765,4.766,12.491,0,17.255
		C414.997,448.613,411.874,449.805,408.751,449.805z"/>
	<path style="fill:#333333;" d="M168.694,151.513c-3.122,0-6.245-1.191-8.628-3.574L95.153,83.027
		c-4.765-4.765-4.766-12.491,0-17.255c4.765-4.765,12.492-4.766,17.255,0l64.914,64.912c4.765,4.765,4.766,12.491,0,17.255
		C174.94,150.322,171.816,151.513,168.694,151.513z"/>
	<path style="fill:#333333;" d="M139.577,180.631c-3.122,0-6.246-1.191-8.628-3.574l-64.912-64.912
		c-4.765-4.765-4.765-12.491,0-17.257c4.765-4.765,12.491-4.765,17.257,0l64.912,64.912c4.765,4.765,4.765,12.491,0,17.257
		C145.822,179.44,142.7,180.631,139.577,180.631z"/>
	<path style="fill:#333333;" d="M402.44,210.769L301.5,109.828c-4.765-4.765-12.492-4.765-17.255,0L123.646,270.425
		c-2.288,2.288-3.574,5.392-3.574,8.628c0,3.236,1.286,6.34,3.574,8.628l13.723,13.723l-30.195,30.195
		c-4.765,4.765-4.765,12.491,0,17.257l18.672,18.672l-7.122,7.122c-4.765,4.765-4.765,12.491,0,17.257
		c2.383,2.383,5.505,3.574,8.628,3.574s6.246-1.191,8.628-3.574l7.122-7.122l20.311,20.31c2.383,2.382,5.505,3.574,8.628,3.574
		s6.246-1.192,8.628-3.574l30.195-30.195l13.723,13.723c2.383,2.383,5.505,3.574,8.628,3.574s6.246-1.191,8.628-3.574
		l160.597-160.597c2.288-2.288,3.574-5.392,3.574-8.628C406.012,216.161,404.727,213.057,402.44,210.769z M172.04,379.21
		l-38.983-38.983l21.568-21.568l38.983,38.983L172.04,379.21z M233.215,362.738l-83.684-83.684l143.342-143.342l83.684,83.684
		L233.215,362.738z"/>
	<path style="fill:#333333;" d="M122.472,474.025c-47.348,0-85.867-38.519-85.867-85.866c0-6.739,5.463-12.202,12.202-12.202
		s12.202,5.463,12.202,12.202c0,33.891,27.573,61.463,61.464,61.463c6.739,0,12.202,5.463,12.202,12.202
		C134.674,468.562,129.21,474.025,122.472,474.025z"/>
	<path style="fill:#333333;" d="M122.472,510.63C54.94,510.63,0,455.69,0,388.159c0-6.739,5.463-12.202,12.202-12.202
		s12.202,5.463,12.202,12.202c0,54.075,43.993,98.068,98.069,98.068c6.739,0,12.202,5.463,12.202,12.202
		C134.674,505.167,129.21,510.63,122.472,510.63z"/>
	<path style="fill:#333333;" d="M122.472,437.42c-27.164,0-49.263-22.098-49.263-49.263c0-6.739,5.463-12.202,12.202-12.202
		c6.739,0,12.202,5.463,12.202,12.202c0,13.707,11.152,24.859,24.859,24.859c6.739,0,12.202,5.463,12.202,12.202
		C134.674,431.958,129.21,437.42,122.472,437.42z"/>
</g>
<g>
</g>
<g>
</g>
<g>
</g>
<g>
</g>
<g>
</g>
<g>
</g>
<g>
</g>
<g>
</g>
<g>
</g>
<g>
</g>
<g>
</g>
<g>
</g>
<g>
</g>
<g>
</g>
<g>
</g>
</svg>
