<svg width="33" height="33" viewBox="0 0 33 33" fill="none" xmlns="http://www.w3.org/2000/svg">
<path d="M26.8269 8.04375L18.6594 3.3275C17.3256 2.5575 15.6756 2.5575 14.3281 3.3275L6.17437 8.04375C4.84062 8.81375 4.01562 10.2437 4.01562 11.7975V21.2025C4.01562 22.7425 4.84062 24.1725 6.17437 24.9562L14.3419 29.6725C15.6756 30.4425 17.3256 30.4425 18.6731 29.6725L26.8406 24.9562C28.1744 24.1862 28.9994 22.7563 28.9994 21.2025V11.7975C28.9856 10.2437 28.1606 8.8275 26.8269 8.04375ZM15.4694 10.6562C15.4694 10.0925 15.9369 9.625 16.5006 9.625C17.0644 9.625 17.5319 10.0925 17.5319 10.6562V17.875C17.5319 18.4387 17.0644 18.9062 16.5006 18.9062C15.9369 18.9062 15.4694 18.4387 15.4694 17.875V10.6562ZM17.7656 22.8662C17.6969 23.0312 17.6006 23.1825 17.4769 23.32C17.2156 23.5812 16.8719 23.7188 16.5006 23.7188C16.3219 23.7188 16.1431 23.6775 15.9781 23.6088C15.7994 23.54 15.6619 23.4437 15.5244 23.32C15.4006 23.1825 15.3044 23.0312 15.2219 22.8662C15.1531 22.7012 15.1256 22.5225 15.1256 22.3438C15.1256 21.9863 15.2631 21.6287 15.5244 21.3675C15.6619 21.2437 15.7994 21.1475 15.9781 21.0787C16.4869 20.8587 17.0919 20.9825 17.4769 21.3675C17.6006 21.505 17.6969 21.6425 17.7656 21.8212C17.8344 21.9862 17.8756 22.165 17.8756 22.3438C17.8756 22.5225 17.8344 22.7012 17.7656 22.8662Z" fill="#E04141"/>
</svg>
